# xmcd
#
# Track frame offsets:
#	150
#	19380
#	35002
#	50592
#	66232
#	85017
#	100225
#	120585
#	144122
#	163157
#	177135
#
# Disc length: 2887 seconds
# Revision: 2
# Processed by: cddbd v1.5.2PL0 Copyright (c) Steve Scherf et al.
# Submitted via: dBpowerAMP V12.0
#
DISCID=900b450b
DTITLE=New Riders of the Purple Sage - Midnight Moonlight
DYEAR=1992
DGENRE=Country
TTITLE0=Midnight Moonlight
TTITLE1=Sutter's Mill
TTITLE2=Charlie's Garden
TTITLE3=All I Remember
TTITLE4=Louisiana Lady
TTITLE5=Ballad of the Deportees
TTITLE6=Taking It Hard
TTITLE7=Glendale Train
TTITLE8=Change in the Weather
TTITLE9=Diesel on My Tail
TTITLE10=Lonesome L.A. Cowboy
EXTD=
EXTT0=
EXTT1=
EXTT2=
EXTT3=
EXTT4=
EXTT5=
EXTT6=
EXTT7=
EXTT8=
EXTT9=
EXTT10=
PLAYORDER=
